<svg width="246" height="246" viewBox="0 0 246 246" fill="none" xmlns="http://www.w3.org/2000/svg">
<circle cx="123" cy="123" r="123" fill="black" fill-opacity="0.79"/>
<path d="M122.667 35C132.303 35 141.544 38.9158 148.358 45.8859C155.172 52.856 159 62.3095 159 72.1667C159 82.0239 155.172 91.4774 148.358 98.4475C141.544 105.418 132.303 109.333 122.667 109.333C113.03 109.333 103.789 105.418 96.9751 98.4475C90.1613 91.4774 86.3333 82.0239 86.3333 72.1667C86.3333 62.3095 90.1613 52.856 96.9751 45.8859C103.789 38.9158 113.03 35 122.667 35ZM122.667 127.917C162.815 127.917 195.333 144.549 195.333 165.083V183.667H50V165.083C50 144.549 82.5183 127.917 122.667 127.917Z" fill="white"/>
<path d="M58.5533 197.455H60.755V207.021C60.755 208.039 60.5159 208.941 60.0376 209.727C59.5594 210.509 58.8871 211.124 58.0206 211.574C57.1541 212.019 56.1385 212.241 54.9737 212.241C53.8137 212.241 52.8004 212.019 51.9339 211.574C51.0675 211.124 50.3951 210.509 49.9169 209.727C49.4387 208.941 49.1996 208.039 49.1996 207.021V197.455H51.3942V206.844C51.3942 207.502 51.5386 208.087 51.8274 208.598C52.121 209.109 52.5353 209.512 53.0703 209.805C53.6054 210.094 54.2398 210.239 54.9737 210.239C55.7124 210.239 56.3492 210.094 56.8842 209.805C57.424 209.512 57.8359 209.109 58.12 208.598C58.4089 208.087 58.5533 207.502 58.5533 206.844V197.455ZM63.9457 212V197.455H69.1303C70.262 197.455 71.1995 197.661 71.9428 198.072C72.6862 198.484 73.2425 199.048 73.6119 199.763C73.9812 200.473 74.1658 201.273 74.1658 202.163C74.1658 203.058 73.9788 203.863 73.6048 204.578C73.2354 205.288 72.6767 205.852 71.9286 206.268C71.1853 206.68 70.2501 206.886 69.1232 206.886H65.5579V205.026H68.9244C69.6393 205.026 70.2193 204.902 70.6644 204.656C71.1095 204.405 71.4362 204.064 71.6445 203.634C71.8529 203.203 71.957 202.713 71.957 202.163C71.957 201.614 71.8529 201.126 71.6445 200.7C71.4362 200.274 71.1071 199.94 70.6573 199.699C70.2122 199.457 69.6251 199.337 68.896 199.337H66.1403V212H63.9457ZM76.7386 212V197.455H78.9332V210.111H85.5241V212H76.7386ZM100.096 204.727C100.096 206.28 99.8121 207.616 99.244 208.733C98.6758 209.846 97.8969 210.703 96.9073 211.304C95.9225 211.901 94.8027 212.199 93.5479 212.199C92.2885 212.199 91.1639 211.901 90.1744 211.304C89.1895 210.703 88.413 209.843 87.8448 208.726C87.2766 207.608 86.9925 206.276 86.9925 204.727C86.9925 203.174 87.2766 201.841 87.8448 200.729C88.413 199.611 89.1895 198.754 90.1744 198.158C91.1639 197.556 92.2885 197.256 93.5479 197.256C94.8027 197.256 95.9225 197.556 96.9073 198.158C97.8969 198.754 98.6758 199.611 99.244 200.729C99.8121 201.841 100.096 203.174 100.096 204.727ZM97.9229 204.727C97.9229 203.544 97.7312 202.547 97.3477 201.737C96.9689 200.923 96.448 200.307 95.7852 199.891C95.127 199.469 94.3813 199.259 93.5479 199.259C92.7099 199.259 91.9618 199.469 91.3036 199.891C90.6455 200.307 90.1246 200.923 89.7411 201.737C89.3623 202.547 89.1729 203.544 89.1729 204.727C89.1729 205.911 89.3623 206.91 89.7411 207.724C90.1246 208.534 90.6455 209.15 91.3036 209.571C91.9618 209.988 92.7099 210.196 93.5479 210.196C94.3813 210.196 95.127 209.988 95.7852 209.571C96.448 209.15 96.9689 208.534 97.3477 207.724C97.7312 206.91 97.9229 205.911 97.9229 204.727ZM103.338 212H101.009L106.243 197.455H108.779L114.013 212H111.684L107.571 200.097H107.458L103.338 212ZM103.729 206.304H111.286V208.151H103.729V206.304ZM120.822 212H116.114V197.455H120.972C122.397 197.455 123.621 197.746 124.643 198.328C125.666 198.906 126.45 199.737 126.994 200.821C127.544 201.901 127.818 203.196 127.818 204.706C127.818 206.221 127.541 207.523 126.987 208.612C126.438 209.701 125.643 210.539 124.601 211.126C123.559 211.709 122.3 212 120.822 212ZM118.308 210.082H120.702C121.81 210.082 122.731 209.874 123.464 209.457C124.198 209.036 124.748 208.428 125.112 207.632C125.477 206.832 125.659 205.857 125.659 204.706C125.659 203.565 125.477 202.597 125.112 201.801C124.752 201.006 124.215 200.402 123.5 199.99C122.785 199.578 121.897 199.372 120.837 199.372H118.308V210.082ZM135.84 212V197.455H141.025C142.156 197.455 143.094 197.661 143.837 198.072C144.581 198.484 145.137 199.048 145.506 199.763C145.876 200.473 146.06 201.273 146.06 202.163C146.06 203.058 145.873 203.863 145.499 204.578C145.13 205.288 144.571 205.852 143.823 206.268C143.08 206.68 142.145 206.886 141.018 206.886H137.452V205.026H140.819C141.534 205.026 142.114 204.902 142.559 204.656C143.004 204.405 143.331 204.064 143.539 203.634C143.747 203.203 143.852 202.713 143.852 202.163C143.852 201.614 143.747 201.126 143.539 200.7C143.331 200.274 143.002 199.94 142.552 199.699C142.107 199.457 141.52 199.337 140.79 199.337H138.035V212H135.84ZM148.633 212V197.455H150.828V203.776H158.079V197.455H160.281V212H158.079V205.658H150.828V212H148.633ZM176.112 204.727C176.112 206.28 175.828 207.616 175.26 208.733C174.691 209.846 173.913 210.703 172.923 211.304C171.938 211.901 170.818 212.199 169.564 212.199C168.304 212.199 167.18 211.901 166.19 211.304C165.205 210.703 164.429 209.843 163.86 208.726C163.292 207.608 163.008 206.276 163.008 204.727C163.008 203.174 163.292 201.841 163.86 200.729C164.429 199.611 165.205 198.754 166.19 198.158C167.18 197.556 168.304 197.256 169.564 197.256C170.818 197.256 171.938 197.556 172.923 198.158C173.913 198.754 174.691 199.611 175.26 200.729C175.828 201.841 176.112 203.174 176.112 204.727ZM173.939 204.727C173.939 203.544 173.747 202.547 173.363 201.737C172.984 200.923 172.464 200.307 171.801 199.891C171.143 199.469 170.397 199.259 169.564 199.259C168.725 199.259 167.977 199.469 167.319 199.891C166.661 200.307 166.14 200.923 165.757 201.737C165.378 202.547 165.189 203.544 165.189 204.727C165.189 205.911 165.378 206.91 165.757 207.724C166.14 208.534 166.661 209.15 167.319 209.571C167.977 209.988 168.725 210.196 169.564 210.196C170.397 210.196 171.143 209.988 171.801 209.571C172.464 209.15 172.984 208.534 173.363 207.724C173.747 206.91 173.939 205.911 173.939 204.727ZM177.506 199.344V197.455H188.763V199.344H184.224V212H182.037V199.344H177.506ZM203.26 204.727C203.26 206.28 202.976 207.616 202.408 208.733C201.84 209.846 201.061 210.703 200.071 211.304C199.087 211.901 197.967 212.199 196.712 212.199C195.453 212.199 194.328 211.901 193.338 211.304C192.354 210.703 191.577 209.843 191.009 208.726C190.441 207.608 190.157 206.276 190.157 204.727C190.157 203.174 190.441 201.841 191.009 200.729C191.577 199.611 192.354 198.754 193.338 198.158C194.328 197.556 195.453 197.256 196.712 197.256C197.967 197.256 199.087 197.556 200.071 198.158C201.061 198.754 201.84 199.611 202.408 200.729C202.976 201.841 203.26 203.174 203.26 204.727ZM201.087 204.727C201.087 203.544 200.895 202.547 200.512 201.737C200.133 200.923 199.612 200.307 198.949 199.891C198.291 199.469 197.545 199.259 196.712 199.259C195.874 199.259 195.126 199.469 194.468 199.891C193.81 200.307 193.289 200.923 192.905 201.737C192.526 202.547 192.337 203.544 192.337 204.727C192.337 205.911 192.526 206.91 192.905 207.724C193.289 208.534 193.81 209.15 194.468 209.571C195.126 209.988 195.874 210.196 196.712 210.196C197.545 210.196 198.291 209.988 198.949 209.571C199.612 209.15 200.133 208.534 200.512 207.724C200.895 206.91 201.087 205.911 201.087 204.727Z" fill="white"/>
</svg>
