<svg width="80" height="78" viewBox="0 0 80 78" fill="none" xmlns="http://www.w3.org/2000/svg">
<ellipse cx="39.968" cy="39" rx="39.968" ry="39" fill="black" fill-opacity="0.42"/>
<path d="M19 38.5C22.6819 38.5 25.6666 35.6551 25.6666 32.1458C25.6666 28.6365 22.6819 25.7917 19 25.7917C15.3181 25.7917 12.3333 28.6365 12.3333 32.1458C12.3333 35.6551 15.3181 38.5 19 38.5Z" fill="white"/>
<path d="M31 28.3333C34.6819 28.3333 37.6667 25.4885 37.6667 21.9792C37.6667 18.4699 34.6819 15.625 31 15.625C27.3181 15.625 24.3334 18.4699 24.3334 21.9792C24.3334 25.4885 27.3181 28.3333 31 28.3333Z" fill="white"/>
<path d="M47 28.3333C50.6819 28.3333 53.6667 25.4885 53.6667 21.9792C53.6667 18.4699 50.6819 15.625 47 15.625C43.3181 15.625 40.3334 18.4699 40.3334 21.9792C40.3334 25.4885 43.3181 28.3333 47 28.3333Z" fill="white"/>
<path d="M59 38.5C62.6819 38.5 65.6667 35.6551 65.6667 32.1458C65.6667 28.6365 62.6819 25.7917 59 25.7917C55.3181 25.7917 52.3334 28.6365 52.3334 32.1458C52.3334 35.6551 55.3181 38.5 59 38.5Z" fill="white"/>
<path d="M53.24 45.7692C50.92 43.1767 48.9733 40.9654 46.6267 38.3729C45.4 37.0004 43.8267 35.6279 41.96 35.0179C41.6667 34.9163 41.3733 34.84 41.08 34.7892C40.4133 34.6875 39.6933 34.6875 39 34.6875C38.3067 34.6875 37.5867 34.6875 36.8933 34.8146C36.6 34.8654 36.3067 34.9417 36.0133 35.0433C34.1467 35.6533 32.6 37.0258 31.3467 38.3983C29.0267 40.9908 27.08 43.2021 24.7333 45.7946C21.24 49.1242 16.9467 52.8096 17.7467 57.9692C18.52 60.5617 20.4667 63.1287 23.96 63.8658C25.9067 64.2471 32.12 62.7475 38.7333 62.7475H39.2133C45.8267 62.7475 52.04 64.2217 53.9867 63.8658C57.48 63.1287 59.4267 60.5363 60.2 57.9692C61.0267 52.7842 56.7333 49.0987 53.24 45.7692Z" fill="white"/>
</svg>
