<svg width="38" height="43" viewBox="0 0 38 43" fill="none" xmlns="http://www.w3.org/2000/svg">
<rect width="38" height="43" fill="#1E1E1E" fill-opacity="0.6"/>
<path d="M28.3167 32.25L20.1792 24.375C19.5333 24.875 18.7906 25.2708 17.951 25.5625C17.1115 25.8542 16.2181 26 15.2708 26C12.9243 26 10.9386 25.2133 9.31367 23.64C7.68875 22.0667 6.87586 20.145 6.875 17.875C6.875 15.6042 7.68789 13.6825 9.31367 12.11C10.9394 10.5375 12.9252 9.75083 15.2708 9.75C17.6174 9.75 19.6035 10.5367 21.2293 12.11C22.8551 13.6833 23.6675 15.605 23.6667 17.875C23.6667 18.7917 23.516 19.6562 23.2146 20.4688C22.9132 21.2812 22.5042 22 21.9875 22.625L30.125 30.5L28.3167 32.25ZM15.2708 23.5C16.8854 23.5 18.258 22.9533 19.3887 21.86C20.5193 20.7667 21.0842 19.4383 21.0833 17.875C21.0833 16.3125 20.5184 14.9846 19.3887 13.8913C18.2589 12.7979 16.8863 12.2508 15.2708 12.25C13.6562 12.25 12.2841 12.7971 11.1543 13.8913C10.0245 14.9854 9.45919 16.3133 9.45833 17.875C9.45833 19.4375 10.0237 20.7658 11.1543 21.86C12.2849 22.9542 13.6571 23.5008 15.2708 23.5Z" fill="white"/>
</svg>
