<svg width="33" height="43" viewBox="0 0 33 43" fill="none" xmlns="http://www.w3.org/2000/svg">
<rect width="33" height="43" fill="#1E1E1E" fill-opacity="0.6"/>
<path d="M19.2357 9.33333L19.2 9.384L19.2348 9.53333C19.6358 11.2011 20.2918 12.7147 21.1534 13.96C22.035 15.2501 23.1117 16.2227 24.2976 16.8L16.4509 28.2133C15.9211 28.9827 15.6562 29.368 15.3647 29.6987C15.0206 30.0887 14.6484 30.4232 14.2546 30.696C13.9209 30.928 13.5662 31.1 12.8557 31.444L9.113 33.2587C8.94173 33.3421 8.75786 33.3544 8.58203 33.2943C8.4062 33.2342 8.24538 33.1039 8.11761 32.9182C7.98985 32.7325 7.9002 32.4987 7.85872 32.243C7.81725 31.9873 7.8256 31.7198 7.88283 31.4707L9.13133 26.0253C9.36783 24.9933 9.48608 24.4773 9.64466 23.992C9.83258 23.4187 10.0627 22.8773 10.3312 22.376C10.5586 21.952 10.8235 21.568 11.3524 20.7987L19.2357 9.33333Z" fill="white"/>
<path opacity="0.5" d="M25.1115 15.6173C25.4462 15.1304 25.7117 14.5523 25.8929 13.9161C26.074 13.28 26.1672 12.5981 26.1671 11.9095C26.1671 11.2209 26.0738 10.5391 25.8926 9.90299C25.7114 9.26685 25.4458 8.68885 25.1111 8.202C24.7763 7.71514 24.3789 7.32897 23.9415 7.06552C23.5041 6.80207 23.0354 6.6665 22.562 6.66656C21.6059 6.66669 20.689 7.21924 20.013 8.20266L19.2 9.38533L19.2348 9.53333C19.6357 11.2011 20.2917 12.7147 21.1534 13.96C22.035 15.2501 23.1117 16.2226 24.2975 16.8L25.1115 15.6173Z" fill="white"/>
</svg>
