<svg width="80" height="78" viewBox="0 0 80 78" fill="none" xmlns="http://www.w3.org/2000/svg">
<ellipse cx="39.968" cy="39" rx="39.968" ry="39" fill="black" fill-opacity="0.42"/>
<path d="M14.5996 53.0578C13.1547 51.5249 12.4635 49.7629 12.5258 47.7716C12.5923 45.7791 13.3951 44.0576 14.9339 42.6071C15.5898 41.9889 16.1094 41.441 16.493 40.9633C16.8766 40.4828 17.0767 40.0036 17.0934 39.5257C17.1101 39.0478 16.9546 38.5471 16.6268 38.0235C16.3018 37.5001 15.8317 36.912 15.2166 36.2594C13.7717 34.7265 13.0675 32.9766 13.104 31.0098C13.1403 29.0457 13.9286 27.3377 15.469 25.8859C17.0093 24.4341 18.7752 23.7345 20.7668 23.7872C22.7596 23.8441 24.4777 24.6383 25.9212 26.1698C26.4635 26.7451 26.9042 27.3596 27.2431 28.0131C27.5821 28.6667 27.7742 29.3113 27.8194 29.9471C27.8802 30.6196 28.15 31.2099 28.6289 31.718C29.1078 32.2261 29.6964 32.4903 30.3945 32.5107L47.9041 32.9862C48.6009 33.0051 49.2525 32.7815 49.8588 32.3155C50.4624 31.8493 50.8296 31.2693 50.9606 30.5756C51.1008 29.9434 51.3477 29.3107 51.7014 28.6774C52.0536 28.0426 52.5189 27.4527 53.097 26.9078C54.6373 25.456 56.4033 24.7564 58.3948 24.8091C60.3876 24.866 62.1058 25.6602 63.5493 27.1917C64.9941 28.7246 65.6853 30.4866 65.623 32.4779C65.5565 34.4704 64.7538 36.1919 63.2149 37.6424C62.559 38.2606 62.0394 38.8085 61.6558 39.2862C61.2722 39.7667 61.0721 40.2459 61.0554 40.7238C61.0387 41.2017 61.2079 41.6895 61.563 42.1873C61.9153 42.685 62.3991 43.2602 63.0142 43.9129C64.4591 45.4458 65.1503 47.2078 65.088 49.1991C65.0215 51.1916 64.2187 52.9131 62.6799 54.3636C61.1395 55.8154 59.3736 56.515 57.382 56.4623C55.3892 56.4054 53.6711 55.6112 52.2276 54.0797C51.6853 53.5044 51.2586 52.8903 50.9475 52.2375C50.635 51.5861 50.429 50.9411 50.3294 50.3024C50.2157 49.6285 49.8918 49.05 49.3577 48.5669C48.8236 48.0838 48.2081 47.8327 47.5113 47.8138L30.1606 47.3426C29.4638 47.3237 28.8474 47.5141 28.3116 47.9137C27.7756 48.3162 27.4036 48.8493 27.1954 49.513C27.0268 50.1179 26.773 50.7707 26.434 51.4714C26.0907 52.1733 25.63 52.7968 25.0518 53.3417C23.5115 54.7935 21.7455 55.4931 19.754 55.4404C17.7612 55.3835 16.043 54.5893 14.5996 53.0578Z" fill="white"/>
</svg>
