<svg width="121" height="156" viewBox="0 0 121 156" fill="none" xmlns="http://www.w3.org/2000/svg">
<path d="M73.1124 118H80.3176C83.9586 118.002 87.5206 116.735 90.5654 114.355C93.6102 111.975 96.0049 108.587 97.455 104.606C98.9051 100.625 99.3473 96.2252 98.7271 91.9486C98.1069 87.672 96.4515 83.7048 93.9645 80.535L88.329 73.3286C85.608 69.8529 84.1255 65.2535 84.1941 60.5002C84.2627 55.7469 85.877 51.2111 88.6966 47.849L94.2332 41.2494C94.8772 40.4546 95.2335 39.3901 95.2255 38.2851C95.2174 37.1801 94.8456 36.1231 94.1901 35.3418C93.5346 34.5604 92.6479 34.1172 91.7209 34.1076C90.7939 34.098 89.9008 34.5228 89.234 35.2904L83.7046 41.89C79.5896 46.797 77.2336 53.4168 77.1334 60.354C77.0331 67.2912 79.1964 74.0038 83.1672 79.0769L88.8027 86.2833C90.3439 88.2551 91.369 90.7201 91.7522 93.3761C92.1354 96.0322 91.8601 98.7637 90.9601 101.236C90.0601 103.708 88.5744 105.814 86.6853 107.294C84.7961 108.775 82.5856 109.566 80.3247 109.571H76.7681C76.7822 107.852 76.7751 105.694 76.7115 103.233C76.5276 96.8274 75.9337 88.205 74.2367 79.5151C72.5397 70.8759 69.6972 61.832 64.8324 54.87C60.4979 48.6666 54.6079 44.2079 46.8582 43.1711V18.4249C46.8526 13.5389 45.2213 8.85505 42.3223 5.40093C39.4232 1.94681 35.4931 0.00445954 31.3942 0C27.8022 0 24.889 3.481 24.889 7.77114V11.8421H16.5665C11.8997 11.8421 7.57942 14.7163 5.11875 19.4447L2.04292 25.3616C-3.33804 35.7203 2.52374 48.9953 12.4725 49.8466V104.902C12.4725 112.134 17.3867 118 23.4536 118H27.3638V104.902C27.3628 102.016 27.839 99.1575 28.7649 96.4906C29.6909 93.8237 31.0486 91.4004 32.7604 89.3591C34.4722 87.3178 36.5047 85.6985 38.7416 84.5937C40.9786 83.4889 43.3762 82.9203 45.7976 82.9203H52.0058C52.9435 82.9203 53.8427 83.3643 54.5057 84.1546C55.1688 84.945 55.5413 86.0169 55.5413 87.1346C55.5413 88.2523 55.1688 89.3242 54.5057 90.1145C53.8427 90.9049 52.9435 91.3489 52.0058 91.3489H45.7976C39.5257 91.3489 34.4347 97.4174 34.4347 104.902V118H73.1124Z" fill="#61A5C2"/>
<path d="M87.3356 3C85.1137 3 81.855 3.68281 79.0541 5.83188C76.0917 8.1175 73.8698 11.8909 73.8698 17.375V26.3809C73.8929 27.6365 74.2579 28.8577 74.9201 29.8956C75.553 30.8372 76.6438 31.7644 78.9127 31.7644C81.1817 31.7644 82.2724 30.8372 82.9053 29.8956C83.5687 28.8583 83.9337 27.6367 83.9557 26.3809C83.9557 25.4278 84.3103 24.5137 84.9417 23.8398C85.573 23.1658 86.4293 22.7872 87.3221 22.7872C88.215 22.7872 89.0712 23.1658 89.7025 23.8398C90.3339 24.5137 90.6886 25.4278 90.6886 26.3809C90.6886 28.4581 90.1365 31.4841 88.3724 34.0931C86.4872 36.8963 83.3766 38.9519 78.9127 38.9519C76.7582 38.9519 74.9067 38.4703 73.3648 37.6581C72.402 45.6506 69.5944 56.3887 61.387 65.1431C54.0751 72.9559 50.4865 82.6303 48.7225 90.1772C47.7813 94.2214 47.1952 98.3506 46.9719 102.511C46.9601 102.774 46.9511 103.038 46.945 103.302V103.524L46.9383 103.596V103.625C46.9383 103.661 46.9383 103.733 46.9248 103.833C46.8454 105.077 46.5414 106.293 46.0293 107.413C45.6144 108.347 44.9757 109.148 44.1778 109.734C43.3698 110.309 42.1445 110.812 40.2054 110.812C37.3792 110.812 34.6246 109.863 32.3318 108.099C30.0391 106.335 28.3244 103.846 27.4306 100.983C26.5369 98.121 26.5094 95.0312 27.3521 92.1513C28.1948 89.2715 29.8649 86.7477 32.1259 84.9375C32.4796 84.6539 32.7775 84.2986 33.0025 83.8921C33.2276 83.4856 33.3755 83.0357 33.4377 82.5682C33.4999 82.1007 33.4752 81.6246 33.3651 81.1673C33.255 80.7099 33.0615 80.2802 32.7958 79.9027C32.5302 79.5251 32.1974 79.2071 31.8166 78.9669C31.4358 78.7266 31.0144 78.5687 30.5764 78.5023C30.1384 78.4359 29.6925 78.4622 29.2641 78.5798C28.8357 78.6974 28.4331 78.9039 28.0795 79.1875C24.6875 81.9032 22.1821 85.6895 20.9183 90.01C19.6544 94.3304 19.6961 98.9659 21.0376 103.26C22.379 107.553 24.9522 111.287 28.3924 113.933C31.8326 116.579 35.9655 118.002 40.2054 118H94.0685V114.406C94.0685 111.495 92.8027 106.888 89.1333 104.832C87.5309 103.983 85.7573 103.569 83.9691 103.625H77.2363C76.3434 103.625 75.4871 103.246 74.8558 102.572C74.2245 101.898 73.8698 100.984 73.8698 100.031C73.8698 99.0781 74.2245 98.164 74.8558 97.4901C75.4871 96.8161 76.3434 96.4375 77.2363 96.4375H83.9691C85.1541 96.4375 86.2718 96.5381 87.3356 96.725V78.4688C87.3356 77.5156 87.6903 76.6015 88.3216 75.9276C88.9529 75.2536 89.8092 74.875 90.702 74.875C91.5949 74.875 92.4511 75.2536 93.0825 75.9276C93.7138 76.6015 94.0685 77.5156 94.0685 78.4688V99.6575C99.3874 103.754 100.801 110.568 100.801 114.406V118H117.634C118.526 118 119.383 117.621 120.014 116.947C120.645 116.273 121 115.359 121 114.406C121 108.153 119.007 103.46 115.58 100.412C113.264 98.4195 110.482 97.1397 107.534 96.7106V38.9375H110.901C113.579 38.9375 116.148 37.8016 118.042 35.7797C119.936 33.7579 121 31.0156 121 28.1562V19.4091C121 18.1688 120.699 16.9498 120.127 15.8704C119.555 14.791 118.73 13.8881 117.735 13.2494L105.73 5.55875C103.114 3.88415 100.121 2.99973 97.0713 3H87.3356Z" fill="#94D2BD"/>
<g filter="url(#filter0_d_51_692)">
<mask id="path-3-outside-1_51_692" maskUnits="userSpaceOnUse" x="24" y="125" width="87" height="25" fill="black">
<rect fill="white" x="24" y="125" width="87" height="25"/>
<path d="M36.56 132.36C36.56 133.107 36.38 133.807 36.02 134.46C35.6733 135.113 35.12 135.64 34.36 136.04C33.6133 136.44 32.6667 136.64 31.52 136.64H29.18V142H26.38V128.04H31.52C32.6 128.04 33.52 128.227 34.28 128.6C35.04 128.973 35.6067 129.487 35.98 130.14C36.3667 130.793 36.56 131.533 36.56 132.36ZM31.4 134.38C32.1733 134.38 32.7467 134.207 33.12 133.86C33.4933 133.5 33.68 133 33.68 132.36C33.68 131 32.92 130.32 31.4 130.32H29.18V134.38H31.4ZM48.848 136.22C48.848 136.62 48.8213 136.98 48.768 137.3H40.668C40.7346 138.1 41.0146 138.727 41.508 139.18C42.0013 139.633 42.608 139.86 43.328 139.86C44.368 139.86 45.108 139.413 45.548 138.52H48.568C48.248 139.587 47.6346 140.467 46.728 141.16C45.8213 141.84 44.708 142.18 43.388 142.18C42.3213 142.18 41.3613 141.947 40.508 141.48C39.668 141 39.008 140.327 38.528 139.46C38.0613 138.593 37.828 137.593 37.828 136.46C37.828 135.313 38.0613 134.307 38.528 133.44C38.9946 132.573 39.648 131.907 40.488 131.44C41.328 130.973 42.2946 130.74 43.388 130.74C44.4413 130.74 45.3813 130.967 46.208 131.42C47.048 131.873 47.6946 132.52 48.148 133.36C48.6146 134.187 48.848 135.14 48.848 136.22ZM45.948 135.42C45.9346 134.7 45.6746 134.127 45.168 133.7C44.6613 133.26 44.0413 133.04 43.308 133.04C42.6146 133.04 42.028 133.253 41.548 133.68C41.0813 134.093 40.7946 134.673 40.688 135.42H45.948ZM54.1517 133.22V138.58C54.1517 138.953 54.2384 139.227 54.4117 139.4C54.5984 139.56 54.9051 139.64 55.3317 139.64H56.6317V142H54.8717C52.5117 142 51.3317 140.853 51.3317 138.56V133.22H50.0117V130.92H51.3317V128.18H54.1517V130.92H56.6317V133.22H54.1517ZM67.2056 139.34H61.6456L60.7256 142H57.7856L62.8056 128.02H66.0656L71.0856 142H68.1256L67.2056 139.34ZM66.4456 137.1L64.4256 131.26L62.4056 137.1H66.4456ZM75.762 132.52C76.122 132.013 76.6154 131.593 77.242 131.26C77.882 130.913 78.6087 130.74 79.422 130.74C80.3687 130.74 81.222 130.973 81.982 131.44C82.7554 131.907 83.362 132.573 83.802 133.44C84.2554 134.293 84.482 135.287 84.482 136.42C84.482 137.553 84.2554 138.56 83.802 139.44C83.362 140.307 82.7554 140.98 81.982 141.46C81.222 141.94 80.3687 142.18 79.422 142.18C78.6087 142.18 77.8887 142.013 77.262 141.68C76.6487 141.347 76.1487 140.927 75.762 140.42V147.28H72.962V130.92H75.762V132.52ZM81.622 136.42C81.622 135.753 81.482 135.18 81.202 134.7C80.9354 134.207 80.5754 133.833 80.122 133.58C79.682 133.327 79.202 133.2 78.682 133.2C78.1754 133.2 77.6954 133.333 77.242 133.6C76.802 133.853 76.442 134.227 76.162 134.72C75.8954 135.213 75.762 135.793 75.762 136.46C75.762 137.127 75.8954 137.707 76.162 138.2C76.442 138.693 76.802 139.073 77.242 139.34C77.6954 139.593 78.1754 139.72 78.682 139.72C79.202 139.72 79.682 139.587 80.122 139.32C80.5754 139.053 80.9354 138.673 81.202 138.18C81.482 137.687 81.622 137.1 81.622 136.42ZM89.3167 132.52C89.6767 132.013 90.1701 131.593 90.7967 131.26C91.4367 130.913 92.1634 130.74 92.9767 130.74C93.9234 130.74 94.7767 130.973 95.5367 131.44C96.3101 131.907 96.9167 132.573 97.3567 133.44C97.8101 134.293 98.0367 135.287 98.0367 136.42C98.0367 137.553 97.8101 138.56 97.3567 139.44C96.9167 140.307 96.3101 140.98 95.5367 141.46C94.7767 141.94 93.9234 142.18 92.9767 142.18C92.1634 142.18 91.4434 142.013 90.8167 141.68C90.2034 141.347 89.7034 140.927 89.3167 140.42V147.28H86.5167V130.92H89.3167V132.52ZM95.1767 136.42C95.1767 135.753 95.0367 135.18 94.7567 134.7C94.4901 134.207 94.1301 133.833 93.6767 133.58C93.2367 133.327 92.7567 133.2 92.2367 133.2C91.7301 133.2 91.2501 133.333 90.7967 133.6C90.3567 133.853 89.9967 134.227 89.7167 134.72C89.4501 135.213 89.3167 135.793 89.3167 136.46C89.3167 137.127 89.4501 137.707 89.7167 138.2C89.9967 138.693 90.3567 139.073 90.7967 139.34C91.2501 139.593 91.7301 139.72 92.2367 139.72C92.7567 139.72 93.2367 139.587 93.6767 139.32C94.1301 139.053 94.4901 138.673 94.7567 138.18C95.0367 137.687 95.1767 137.1 95.1767 136.42ZM104.311 142.18C103.405 142.18 102.591 142.02 101.871 141.7C101.151 141.367 100.578 140.92 100.151 140.36C99.7381 139.8 99.5114 139.18 99.4714 138.5H102.291C102.345 138.927 102.551 139.28 102.911 139.56C103.285 139.84 103.745 139.98 104.291 139.98C104.825 139.98 105.238 139.873 105.531 139.66C105.838 139.447 105.991 139.173 105.991 138.84C105.991 138.48 105.805 138.213 105.431 138.04C105.071 137.853 104.491 137.653 103.691 137.44C102.865 137.24 102.185 137.033 101.651 136.82C101.131 136.607 100.678 136.28 100.291 135.84C99.9181 135.4 99.7314 134.807 99.7314 134.06C99.7314 133.447 99.9047 132.887 100.251 132.38C100.611 131.873 101.118 131.473 101.771 131.18C102.438 130.887 103.218 130.74 104.111 130.74C105.431 130.74 106.485 131.073 107.271 131.74C108.058 132.393 108.491 133.28 108.571 134.4H105.891C105.851 133.96 105.665 133.613 105.331 133.36C105.011 133.093 104.578 132.96 104.031 132.96C103.525 132.96 103.131 133.053 102.851 133.24C102.585 133.427 102.451 133.687 102.451 134.02C102.451 134.393 102.638 134.68 103.011 134.88C103.385 135.067 103.965 135.26 104.751 135.46C105.551 135.66 106.211 135.867 106.731 136.08C107.251 136.293 107.698 136.627 108.071 137.08C108.458 137.52 108.658 138.107 108.671 138.84C108.671 139.48 108.491 140.053 108.131 140.56C107.785 141.067 107.278 141.467 106.611 141.76C105.958 142.04 105.191 142.18 104.311 142.18Z"/>
</mask>
<path d="M36.56 132.36C36.56 133.107 36.38 133.807 36.02 134.46C35.6733 135.113 35.12 135.64 34.36 136.04C33.6133 136.44 32.6667 136.64 31.52 136.64H29.18V142H26.38V128.04H31.52C32.6 128.04 33.52 128.227 34.28 128.6C35.04 128.973 35.6067 129.487 35.98 130.14C36.3667 130.793 36.56 131.533 36.56 132.36ZM31.4 134.38C32.1733 134.38 32.7467 134.207 33.12 133.86C33.4933 133.5 33.68 133 33.68 132.36C33.68 131 32.92 130.32 31.4 130.32H29.18V134.38H31.4ZM48.848 136.22C48.848 136.62 48.8213 136.98 48.768 137.3H40.668C40.7346 138.1 41.0146 138.727 41.508 139.18C42.0013 139.633 42.608 139.86 43.328 139.86C44.368 139.86 45.108 139.413 45.548 138.52H48.568C48.248 139.587 47.6346 140.467 46.728 141.16C45.8213 141.84 44.708 142.18 43.388 142.18C42.3213 142.18 41.3613 141.947 40.508 141.48C39.668 141 39.008 140.327 38.528 139.46C38.0613 138.593 37.828 137.593 37.828 136.46C37.828 135.313 38.0613 134.307 38.528 133.44C38.9946 132.573 39.648 131.907 40.488 131.44C41.328 130.973 42.2946 130.74 43.388 130.74C44.4413 130.74 45.3813 130.967 46.208 131.42C47.048 131.873 47.6946 132.52 48.148 133.36C48.6146 134.187 48.848 135.14 48.848 136.22ZM45.948 135.42C45.9346 134.7 45.6746 134.127 45.168 133.7C44.6613 133.26 44.0413 133.04 43.308 133.04C42.6146 133.04 42.028 133.253 41.548 133.68C41.0813 134.093 40.7946 134.673 40.688 135.42H45.948ZM54.1517 133.22V138.58C54.1517 138.953 54.2384 139.227 54.4117 139.4C54.5984 139.56 54.9051 139.64 55.3317 139.64H56.6317V142H54.8717C52.5117 142 51.3317 140.853 51.3317 138.56V133.22H50.0117V130.92H51.3317V128.18H54.1517V130.92H56.6317V133.22H54.1517ZM67.2056 139.34H61.6456L60.7256 142H57.7856L62.8056 128.02H66.0656L71.0856 142H68.1256L67.2056 139.34ZM66.4456 137.1L64.4256 131.26L62.4056 137.1H66.4456ZM75.762 132.52C76.122 132.013 76.6154 131.593 77.242 131.26C77.882 130.913 78.6087 130.74 79.422 130.74C80.3687 130.74 81.222 130.973 81.982 131.44C82.7554 131.907 83.362 132.573 83.802 133.44C84.2554 134.293 84.482 135.287 84.482 136.42C84.482 137.553 84.2554 138.56 83.802 139.44C83.362 140.307 82.7554 140.98 81.982 141.46C81.222 141.94 80.3687 142.18 79.422 142.18C78.6087 142.18 77.8887 142.013 77.262 141.68C76.6487 141.347 76.1487 140.927 75.762 140.42V147.28H72.962V130.92H75.762V132.52ZM81.622 136.42C81.622 135.753 81.482 135.18 81.202 134.7C80.9354 134.207 80.5754 133.833 80.122 133.58C79.682 133.327 79.202 133.2 78.682 133.2C78.1754 133.2 77.6954 133.333 77.242 133.6C76.802 133.853 76.442 134.227 76.162 134.72C75.8954 135.213 75.762 135.793 75.762 136.46C75.762 137.127 75.8954 137.707 76.162 138.2C76.442 138.693 76.802 139.073 77.242 139.34C77.6954 139.593 78.1754 139.72 78.682 139.72C79.202 139.72 79.682 139.587 80.122 139.32C80.5754 139.053 80.9354 138.673 81.202 138.18C81.482 137.687 81.622 137.1 81.622 136.42ZM89.3167 132.52C89.6767 132.013 90.1701 131.593 90.7967 131.26C91.4367 130.913 92.1634 130.74 92.9767 130.74C93.9234 130.74 94.7767 130.973 95.5367 131.44C96.3101 131.907 96.9167 132.573 97.3567 133.44C97.8101 134.293 98.0367 135.287 98.0367 136.42C98.0367 137.553 97.8101 138.56 97.3567 139.44C96.9167 140.307 96.3101 140.98 95.5367 141.46C94.7767 141.94 93.9234 142.18 92.9767 142.18C92.1634 142.18 91.4434 142.013 90.8167 141.68C90.2034 141.347 89.7034 140.927 89.3167 140.42V147.28H86.5167V130.92H89.3167V132.52ZM95.1767 136.42C95.1767 135.753 95.0367 135.18 94.7567 134.7C94.4901 134.207 94.1301 133.833 93.6767 133.58C93.2367 133.327 92.7567 133.2 92.2367 133.2C91.7301 133.2 91.2501 133.333 90.7967 133.6C90.3567 133.853 89.9967 134.227 89.7167 134.72C89.4501 135.213 89.3167 135.793 89.3167 136.46C89.3167 137.127 89.4501 137.707 89.7167 138.2C89.9967 138.693 90.3567 139.073 90.7967 139.34C91.2501 139.593 91.7301 139.72 92.2367 139.72C92.7567 139.72 93.2367 139.587 93.6767 139.32C94.1301 139.053 94.4901 138.673 94.7567 138.18C95.0367 137.687 95.1767 137.1 95.1767 136.42ZM104.311 142.18C103.405 142.18 102.591 142.02 101.871 141.7C101.151 141.367 100.578 140.92 100.151 140.36C99.7381 139.8 99.5114 139.18 99.4714 138.5H102.291C102.345 138.927 102.551 139.28 102.911 139.56C103.285 139.84 103.745 139.98 104.291 139.98C104.825 139.98 105.238 139.873 105.531 139.66C105.838 139.447 105.991 139.173 105.991 138.84C105.991 138.48 105.805 138.213 105.431 138.04C105.071 137.853 104.491 137.653 103.691 137.44C102.865 137.24 102.185 137.033 101.651 136.82C101.131 136.607 100.678 136.28 100.291 135.84C99.9181 135.4 99.7314 134.807 99.7314 134.06C99.7314 133.447 99.9047 132.887 100.251 132.38C100.611 131.873 101.118 131.473 101.771 131.18C102.438 130.887 103.218 130.74 104.111 130.74C105.431 130.74 106.485 131.073 107.271 131.74C108.058 132.393 108.491 133.28 108.571 134.4H105.891C105.851 133.96 105.665 133.613 105.331 133.36C105.011 133.093 104.578 132.96 104.031 132.96C103.525 132.96 103.131 133.053 102.851 133.24C102.585 133.427 102.451 133.687 102.451 134.02C102.451 134.393 102.638 134.68 103.011 134.88C103.385 135.067 103.965 135.26 104.751 135.46C105.551 135.66 106.211 135.867 106.731 136.08C107.251 136.293 107.698 136.627 108.071 137.08C108.458 137.52 108.658 138.107 108.671 138.84C108.671 139.48 108.491 140.053 108.131 140.56C107.785 141.067 107.278 141.467 106.611 141.76C105.958 142.04 105.191 142.18 104.311 142.18Z" fill="#BDE0FE" shape-rendering="crispEdges"/>
<path d="M36.02 134.46L34.2683 133.495L34.2607 133.509L34.2533 133.523L36.02 134.46ZM34.36 136.04L33.4285 134.27L33.422 134.274L33.4156 134.277L34.36 136.04ZM29.18 136.64V134.64H27.18V136.64H29.18ZM29.18 142V144H31.18V142H29.18ZM26.38 142H24.38V144H26.38V142ZM26.38 128.04V126.04H24.38V128.04H26.38ZM34.28 128.6L33.3982 130.395L34.28 128.6ZM35.98 130.14L34.2435 131.132L34.2511 131.146L34.2588 131.159L35.98 130.14ZM33.12 133.86L34.4809 135.326L34.4947 135.313L34.5083 135.3L33.12 133.86ZM29.18 130.32V128.32H27.18V130.32H29.18ZM29.18 134.38H27.18V136.38H29.18V134.38ZM34.56 132.36C34.56 132.769 34.4653 133.137 34.2683 133.495L37.7717 135.425C38.2947 134.476 38.56 133.444 38.56 132.36H34.56ZM34.2533 133.523C34.124 133.766 33.8917 134.026 33.4285 134.27L35.2915 137.81C36.3483 137.254 37.2226 136.46 37.7867 135.397L34.2533 133.523ZM33.4156 134.277C33.0439 134.476 32.4485 134.64 31.52 134.64V138.64C32.8848 138.64 34.1828 138.404 35.3044 137.803L33.4156 134.277ZM31.52 134.64H29.18V138.64H31.52V134.64ZM27.18 136.64V142H31.18V136.64H27.18ZM29.18 140H26.38V144H29.18V140ZM28.38 142V128.04H24.38V142H28.38ZM26.38 130.04H31.52V126.04H26.38V130.04ZM31.52 130.04C32.3759 130.04 32.9775 130.188 33.3982 130.395L35.1618 126.805C34.0625 126.265 32.8241 126.04 31.52 126.04V130.04ZM33.3982 130.395C33.8461 130.615 34.0927 130.868 34.2435 131.132L37.7165 129.148C37.1206 128.105 36.2339 127.332 35.1618 126.805L33.3982 130.395ZM34.2588 131.159C34.4469 131.476 34.56 131.859 34.56 132.36H38.56C38.56 131.208 38.2864 130.11 37.7012 129.121L34.2588 131.159ZM31.4 136.38C32.4238 136.38 33.586 136.157 34.4809 135.326L31.7591 132.394C31.8315 132.327 31.8773 132.322 31.8312 132.336C31.7776 132.352 31.6444 132.38 31.4 132.38V136.38ZM34.5083 135.3C35.3604 134.478 35.68 133.407 35.68 132.36H31.68C31.68 132.487 31.6613 132.529 31.6663 132.515C31.6689 132.509 31.6758 132.493 31.689 132.472C31.7023 132.452 31.7175 132.434 31.7317 132.42L34.5083 135.3ZM35.68 132.36C35.68 131.311 35.3766 130.174 34.4436 129.34C33.5529 128.543 32.4168 128.32 31.4 128.32V132.32C31.6373 132.32 31.7695 132.347 31.8259 132.364C31.8754 132.379 31.8396 132.377 31.7764 132.32C31.7465 132.294 31.7197 132.263 31.6983 132.231C31.6772 132.199 31.6669 132.175 31.6633 132.166C31.6573 132.149 31.68 132.201 31.68 132.36H35.68ZM31.4 128.32H29.18V132.32H31.4V128.32ZM27.18 130.32V134.38H31.18V130.32H27.18ZM29.18 136.38H31.4V132.38H29.18V136.38ZM48.768 137.3V139.3H50.4622L50.7408 137.629L48.768 137.3ZM40.668 137.3V135.3H38.4944L38.6749 137.466L40.668 137.3ZM41.508 139.18L40.1547 140.653L41.508 139.18ZM45.548 138.52V136.52H44.3036L43.7538 137.636L45.548 138.52ZM48.568 138.52L50.4836 139.095L51.256 136.52H48.568V138.52ZM46.728 141.16L47.928 142.76L47.9354 142.754L47.9429 142.749L46.728 141.16ZM40.508 141.48L39.5157 143.216L39.5319 143.226L39.5483 143.235L40.508 141.48ZM38.528 139.46L36.767 140.408L36.7726 140.419L36.7784 140.429L38.528 139.46ZM38.528 133.44L36.767 132.492V132.492L38.528 133.44ZM40.488 131.44L41.4593 133.188L41.4593 133.188L40.488 131.44ZM46.208 131.42L45.2463 133.174L45.2581 133.18L46.208 131.42ZM48.148 133.36L46.3879 134.31L46.397 134.327L46.4063 134.343L48.148 133.36ZM45.948 135.42V137.42H47.9853L47.9476 135.383L45.948 135.42ZM45.168 133.7L43.8566 135.21L43.8681 135.22L43.8797 135.23L45.168 133.7ZM41.548 133.68L42.874 135.177L42.8767 135.175L41.548 133.68ZM40.688 135.42L38.7081 135.137L38.3819 137.42H40.688V135.42ZM46.848 136.22C46.848 136.534 46.8268 136.781 46.7952 136.971L50.7408 137.629C50.8158 137.179 50.848 136.706 50.848 136.22H46.848ZM48.768 135.3H40.668V139.3H48.768V135.3ZM38.6749 137.466C38.7745 138.662 39.2208 139.794 40.1547 140.653L42.8612 137.707C42.8084 137.659 42.6948 137.538 42.6611 137.134L38.6749 137.466ZM40.1547 140.653C41.0461 141.472 42.1476 141.86 43.328 141.86V137.86C43.0684 137.86 42.9565 137.795 42.8612 137.707L40.1547 140.653ZM43.328 141.86C44.1379 141.86 44.9566 141.684 45.6965 141.237C46.4416 140.788 46.9794 140.14 47.3421 139.404L43.7538 137.636C43.7129 137.719 43.6791 137.764 43.6607 137.784C43.6437 137.804 43.6339 137.81 43.6294 137.813C43.6293 137.813 43.558 137.86 43.328 137.86V141.86ZM45.548 140.52H48.568V136.52H45.548V140.52ZM46.6523 137.945C46.4565 138.598 46.0942 139.127 45.5131 139.571L47.9429 142.749C49.1751 141.806 50.0394 140.575 50.4836 139.095L46.6523 137.945ZM45.528 139.56C45.0223 139.939 44.3492 140.18 43.388 140.18V144.18C45.0667 144.18 46.6203 143.741 47.928 142.76L45.528 139.56ZM43.388 140.18C42.6235 140.18 41.9989 140.016 41.4676 139.725L39.5483 143.235C40.7237 143.878 42.0191 144.18 43.388 144.18V140.18ZM41.5002 139.744C40.9861 139.45 40.5846 139.045 40.2776 138.491L36.7784 140.429C37.4313 141.608 38.3498 142.55 39.5157 143.216L41.5002 139.744ZM40.2889 138.512C40.0015 137.978 39.828 137.313 39.828 136.46H35.828C35.828 137.874 36.1211 139.209 36.767 140.408L40.2889 138.512ZM39.828 136.46C39.828 135.589 40.0032 134.919 40.2889 134.388L36.767 132.492C36.1194 133.695 35.828 135.037 35.828 136.46H39.828ZM40.2889 134.388C40.5789 133.85 40.9621 133.465 41.4593 133.188L39.5167 129.692C38.3339 130.349 37.4103 131.297 36.767 132.492L40.2889 134.388ZM41.4593 133.188C41.9632 132.908 42.587 132.74 43.388 132.74V128.74C42.0022 128.74 40.6927 129.038 39.5167 129.692L41.4593 133.188ZM43.388 132.74C44.1453 132.74 44.7477 132.9 45.2463 133.174L47.1696 129.666C46.0149 129.033 44.7373 128.74 43.388 128.74V132.74ZM45.2581 133.18C45.7548 133.448 46.1199 133.813 46.3879 134.31L49.908 132.41C49.2694 131.227 48.3411 130.299 47.1578 129.66L45.2581 133.18ZM46.4063 134.343C46.6814 134.831 46.848 135.436 46.848 136.22H50.848C50.848 134.844 50.5478 133.543 49.8896 132.377L46.4063 134.343ZM47.9476 135.383C47.9247 134.143 47.4459 133.004 46.4562 132.17L43.8797 135.23C43.9014 135.248 43.9111 135.26 43.9145 135.264C43.9177 135.269 43.9195 135.272 43.9215 135.276C43.9239 135.281 43.946 135.33 43.9483 135.457L47.9476 135.383ZM46.4793 132.19C45.574 131.404 44.475 131.04 43.308 131.04V135.04C43.6076 135.04 43.7486 135.116 43.8566 135.21L46.4793 132.19ZM43.308 131.04C42.1671 131.04 41.0958 131.406 40.2192 132.185L42.8767 135.175C42.9602 135.101 43.0622 135.04 43.308 135.04V131.04ZM40.2219 132.183C39.3296 132.973 38.8671 134.024 38.7081 135.137L42.6679 135.703C42.7221 135.323 42.833 135.213 42.874 135.177L40.2219 132.183ZM40.688 137.42H45.948V133.42H40.688V137.42ZM54.1517 133.22V131.22H52.1517V133.22H54.1517ZM54.4117 139.4L52.9975 140.814L53.0518 140.869L53.1101 140.919L54.4117 139.4ZM56.6317 139.64H58.6317V137.64H56.6317V139.64ZM56.6317 142V144H58.6317V142H56.6317ZM51.3317 133.22H53.3317V131.22H51.3317V133.22ZM50.0117 133.22H48.0117V135.22H50.0117V133.22ZM50.0117 130.92V128.92H48.0117V130.92H50.0117ZM51.3317 130.92V132.92H53.3317V130.92H51.3317ZM51.3317 128.18V126.18H49.3317V128.18H51.3317ZM54.1517 128.18H56.1517V126.18H54.1517V128.18ZM54.1517 130.92H52.1517V132.92H54.1517V130.92ZM56.6317 130.92H58.6317V128.92H56.6317V130.92ZM56.6317 133.22V135.22H58.6317V133.22H56.6317ZM52.1517 133.22V138.58H56.1517V133.22H52.1517ZM52.1517 138.58C52.1517 139.211 52.2926 140.109 52.9975 140.814L55.8259 137.986C56.0014 138.161 56.0861 138.344 56.1232 138.461C56.1573 138.568 56.1517 138.62 56.1517 138.58H52.1517ZM53.1101 140.919C53.8443 141.548 54.7468 141.64 55.3317 141.64V137.64C55.2341 137.64 55.2295 137.63 55.2866 137.645C55.345 137.66 55.5194 137.715 55.7133 137.881L53.1101 140.919ZM55.3317 141.64H56.6317V137.64H55.3317V141.64ZM54.6317 139.64V142H58.6317V139.64H54.6317ZM56.6317 140H54.8717V144H56.6317V140ZM54.8717 140C53.9859 140 53.6915 139.784 53.6105 139.706C53.5402 139.637 53.3317 139.384 53.3317 138.56H49.3317C49.3317 140.03 49.7132 141.496 50.8229 142.574C51.922 143.642 53.3976 144 54.8717 144V140ZM53.3317 138.56V133.22H49.3317V138.56H53.3317ZM51.3317 131.22H50.0117V135.22H51.3317V131.22ZM52.0117 133.22V130.92H48.0117V133.22H52.0117ZM50.0117 132.92H51.3317V128.92H50.0117V132.92ZM53.3317 130.92V128.18H49.3317V130.92H53.3317ZM51.3317 130.18H54.1517V126.18H51.3317V130.18ZM52.1517 128.18V130.92H56.1517V128.18H52.1517ZM54.1517 132.92H56.6317V128.92H54.1517V132.92ZM54.6317 130.92V133.22H58.6317V130.92H54.6317ZM56.6317 131.22H54.1517V135.22H56.6317V131.22ZM67.2056 139.34L69.0958 138.686L68.6301 137.34H67.2056V139.34ZM61.6456 139.34V137.34H60.2211L59.7555 138.686L61.6456 139.34ZM60.7256 142V144H62.1501L62.6158 142.654L60.7256 142ZM57.7856 142L55.9033 141.324L54.9424 144H57.7856V142ZM62.8056 128.02V126.02H61.3988L60.9233 127.344L62.8056 128.02ZM66.0656 128.02L67.9479 127.344L67.4725 126.02H66.0656V128.02ZM71.0856 142V144H73.9288L72.9679 141.324L71.0856 142ZM68.1256 142L66.2355 142.654L66.7011 144H68.1256V142ZM66.4456 137.1V139.1H69.2537L68.3358 136.446L66.4456 137.1ZM64.4256 131.26L66.3158 130.606L64.4256 125.142L62.5355 130.606L64.4256 131.26ZM62.4056 137.1L60.5155 136.446L59.5976 139.1H62.4056V137.1ZM67.2056 137.34H61.6456V141.34H67.2056V137.34ZM59.7555 138.686L58.8355 141.346L62.6158 142.654L63.5358 139.994L59.7555 138.686ZM60.7256 140H57.7856V144H60.7256V140ZM59.6679 142.676L64.688 128.696L60.9233 127.344L55.9033 141.324L59.6679 142.676ZM62.8056 130.02H66.0656V126.02H62.8056V130.02ZM64.1833 128.696L69.2033 142.676L72.9679 141.324L67.9479 127.344L64.1833 128.696ZM71.0856 140H68.1256V144H71.0856V140ZM70.0158 141.346L69.0958 138.686L65.3155 139.994L66.2355 142.654L70.0158 141.346ZM68.3358 136.446L66.3158 130.606L62.5355 131.914L64.5555 137.754L68.3358 136.446ZM62.5355 130.606L60.5155 136.446L64.2957 137.754L66.3158 131.914L62.5355 130.606ZM62.4056 139.1H66.4456V135.1H62.4056V139.1ZM75.762 132.52H73.762V138.788L77.3924 133.678L75.762 132.52ZM77.242 131.26L78.1813 133.026L78.1879 133.022L78.1946 133.019L77.242 131.26ZM81.982 131.44L80.9355 133.144L80.9421 133.148L80.9487 133.152L81.982 131.44ZM83.802 133.44L82.0187 134.345L82.0271 134.362L82.0358 134.378L83.802 133.44ZM83.802 139.44L82.0241 138.524L82.0187 138.535L83.802 139.44ZM81.982 141.46L80.9273 139.761L80.9207 139.765L80.914 139.769L81.982 141.46ZM77.262 141.68L76.307 143.437L76.3149 143.442L76.3228 143.446L77.262 141.68ZM75.762 140.42L77.3519 139.207L73.762 134.503V140.42H75.762ZM75.762 147.28V149.28H77.762V147.28H75.762ZM72.962 147.28H70.962V149.28H72.962V147.28ZM72.962 130.92V128.92H70.962V130.92H72.962ZM75.762 130.92H77.762V128.92H75.762V130.92ZM81.202 134.7L79.4426 135.651L79.4581 135.68L79.4745 135.708L81.202 134.7ZM80.122 133.58L79.1241 135.313L79.1352 135.32L79.1464 135.326L80.122 133.58ZM77.242 133.6L78.24 135.333L78.248 135.329L78.2561 135.324L77.242 133.6ZM76.162 134.72L74.4227 133.733L74.4125 133.751L74.4026 133.769L76.162 134.72ZM76.162 138.2L74.4026 139.151L74.4125 139.169L74.4227 139.187L76.162 138.2ZM77.242 139.34L76.2054 141.05L76.2356 141.069L76.2664 141.086L77.242 139.34ZM80.122 139.32L79.108 137.596L79.0967 137.603L79.0854 137.61L80.122 139.32ZM81.202 138.18L79.4627 137.193L79.4525 137.211L79.4426 137.229L81.202 138.18ZM77.3924 133.678C77.5483 133.459 77.7899 133.234 78.1813 133.026L76.3028 129.494C75.4409 129.953 74.6958 130.568 74.1317 131.362L77.3924 133.678ZM78.1946 133.019C78.509 132.848 78.9016 132.74 79.422 132.74V128.74C78.3158 128.74 77.255 128.978 76.2895 129.501L78.1946 133.019ZM79.422 132.74C80.0229 132.74 80.5099 132.883 80.9355 133.144L83.0286 129.736C81.9341 129.064 80.7145 128.74 79.422 128.74V132.74ZM80.9487 133.152C81.3769 133.411 81.7348 133.786 82.0187 134.345L85.5854 132.535C84.9893 131.36 84.1338 130.403 83.0154 129.728L80.9487 133.152ZM82.0358 134.378C82.3111 134.897 82.482 135.557 82.482 136.42H86.482C86.482 135.016 86.1996 133.69 85.5683 132.502L82.0358 134.378ZM82.482 136.42C82.482 137.281 82.3116 137.966 82.0241 138.524L85.58 140.356C86.1991 139.154 86.482 137.826 86.482 136.42H82.482ZM82.0187 138.535C81.7327 139.098 81.3685 139.487 80.9273 139.761L83.0368 143.159C84.1423 142.473 84.9914 141.515 85.5854 140.345L82.0187 138.535ZM80.914 139.769C80.491 140.036 80.0117 140.18 79.422 140.18V144.18C80.7257 144.18 81.953 143.844 83.05 143.151L80.914 139.769ZM79.422 140.18C78.8881 140.18 78.499 140.073 78.2013 139.914L76.3228 143.446C77.2784 143.954 78.3293 144.18 79.422 144.18V140.18ZM78.2171 139.923C77.8275 139.711 77.5519 139.469 77.3519 139.207L74.1721 141.633C74.7454 142.385 75.4699 142.982 76.307 143.437L78.2171 139.923ZM73.762 140.42V147.28H77.762V140.42H73.762ZM75.762 145.28H72.962V149.28H75.762V145.28ZM74.962 147.28V130.92H70.962V147.28H74.962ZM72.962 132.92H75.762V128.92H72.962V132.92ZM73.762 130.92V132.52H77.762V130.92H73.762ZM83.622 136.42C83.622 135.47 83.4206 134.534 82.9296 133.692L79.4745 135.708C79.5434 135.826 79.622 136.037 79.622 136.42H83.622ZM82.9614 133.749C82.5293 132.949 81.9089 132.287 81.0977 131.834L79.1464 135.326C79.2418 135.379 79.3415 135.464 79.4426 135.651L82.9614 133.749ZM81.12 131.847C80.3688 131.414 79.5434 131.2 78.682 131.2V135.2C78.8606 135.2 78.9952 135.239 79.1241 135.313L81.12 131.847ZM78.682 131.2C77.8049 131.2 76.9765 131.436 76.228 131.876L78.2561 135.324C78.4143 135.231 78.5459 135.2 78.682 135.2V131.2ZM76.2441 131.867C75.4597 132.318 74.8577 132.966 74.4227 133.733L77.9014 135.707C78.0264 135.487 78.1444 135.388 78.24 135.333L76.2441 131.867ZM74.4026 133.769C73.9507 134.605 73.762 135.524 73.762 136.46H77.762C77.762 136.063 77.84 135.822 77.9214 135.671L74.4026 133.769ZM73.762 136.46C73.762 137.396 73.9507 138.315 74.4026 139.151L77.9214 137.249C77.84 137.098 77.762 136.857 77.762 136.46H73.762ZM74.4227 139.187C74.8536 139.946 75.444 140.589 76.2054 141.05L78.2786 137.63C78.16 137.558 78.0305 137.44 77.9014 137.213L74.4227 139.187ZM76.2664 141.086C77.0101 141.502 77.825 141.72 78.682 141.72V137.72C78.5257 137.72 78.3806 137.685 78.2177 137.594L76.2664 141.086ZM78.682 141.72C79.5634 141.72 80.4025 141.489 81.1586 141.03L79.0854 137.61C78.9615 137.685 78.8406 137.72 78.682 137.72V141.72ZM81.1361 141.044C81.9246 140.58 82.5334 139.923 82.9614 139.131L79.4426 137.229C79.3374 137.424 79.2261 137.527 79.108 137.596L81.1361 141.044ZM82.9414 139.167C83.4232 138.318 83.622 137.377 83.622 136.42H79.622C79.622 136.823 79.5408 137.055 79.4627 137.193L82.9414 139.167ZM89.3167 132.52H87.3167V138.788L90.9471 133.678L89.3167 132.52ZM90.7967 131.26L91.7359 133.026L91.7426 133.022L91.7493 133.019L90.7967 131.26ZM95.5367 131.44L94.4902 133.144L94.4968 133.148L94.5034 133.152L95.5367 131.44ZM97.3567 133.44L95.5734 134.345L95.5818 134.362L95.5905 134.378L97.3567 133.44ZM97.3567 139.44L95.5787 138.524L95.5734 138.535L97.3567 139.44ZM95.5367 141.46L94.482 139.761L94.4753 139.765L94.4687 139.769L95.5367 141.46ZM90.8167 141.68L89.8617 143.437L89.8696 143.442L89.8775 143.446L90.8167 141.68ZM89.3167 140.42L90.9066 139.207L87.3167 134.503V140.42H89.3167ZM89.3167 147.28V149.28H91.3167V147.28H89.3167ZM86.5167 147.28H84.5167V149.28H86.5167V147.28ZM86.5167 130.92V128.92H84.5167V130.92H86.5167ZM89.3167 130.92H91.3167V128.92H89.3167V130.92ZM94.7567 134.7L92.9973 135.651L93.0128 135.68L93.0292 135.708L94.7567 134.7ZM93.6767 133.58L92.6788 135.313L92.6899 135.32L92.7011 135.326L93.6767 133.58ZM90.7967 133.6L91.7946 135.333L91.8027 135.329L91.8108 135.324L90.7967 133.6ZM89.7167 134.72L87.9773 133.733L87.9671 133.751L87.9573 133.769L89.7167 134.72ZM89.7167 138.2L87.9573 139.151L87.9671 139.169L87.9773 139.187L89.7167 138.2ZM90.7967 139.34L89.7601 141.05L89.7903 141.069L89.8211 141.086L90.7967 139.34ZM93.6767 139.32L92.6627 137.596L92.6514 137.603L92.6401 137.61L93.6767 139.32ZM94.7567 138.18L93.0173 137.193L93.0071 137.211L92.9973 137.229L94.7567 138.18ZM90.9471 133.678C91.103 133.459 91.3446 133.234 91.7359 133.026L89.8575 129.494C88.9955 129.953 88.2505 130.568 87.6864 131.362L90.9471 133.678ZM91.7493 133.019C92.0637 132.848 92.4563 132.74 92.9767 132.74V128.74C91.8705 128.74 90.8097 128.978 89.8442 129.501L91.7493 133.019ZM92.9767 132.74C93.5776 132.74 94.0646 132.883 94.4902 133.144L96.5832 129.736C95.4888 129.064 94.2691 128.74 92.9767 128.74V132.74ZM94.5034 133.152C94.9316 133.411 95.2895 133.786 95.5734 134.345L99.1401 132.535C98.544 131.36 97.6885 130.403 96.57 129.728L94.5034 133.152ZM95.5905 134.378C95.8658 134.897 96.0367 135.557 96.0367 136.42H100.037C100.037 135.016 99.7543 133.69 99.1229 132.502L95.5905 134.378ZM96.0367 136.42C96.0367 137.281 95.8663 137.966 95.5788 138.524L99.1347 140.356C99.7538 139.154 100.037 137.826 100.037 136.42H96.0367ZM95.5734 138.535C95.2874 139.098 94.9232 139.487 94.482 139.761L96.5914 143.159C97.697 142.473 98.5461 141.515 99.1401 140.345L95.5734 138.535ZM94.4687 139.769C94.0457 140.036 93.5664 140.18 92.9767 140.18V144.18C94.2804 144.18 95.5077 143.844 96.6047 143.151L94.4687 139.769ZM92.9767 140.18C92.4427 140.18 92.0537 140.073 91.7559 139.914L89.8775 143.446C90.8331 143.954 91.884 144.18 92.9767 144.18V140.18ZM91.7717 139.923C91.3822 139.711 91.1066 139.469 90.9066 139.207L87.7268 141.633C88.3001 142.385 89.0246 142.982 89.8617 143.437L91.7717 139.923ZM87.3167 140.42V147.28H91.3167V140.42H87.3167ZM89.3167 145.28H86.5167V149.28H89.3167V145.28ZM88.5167 147.28V130.92H84.5167V147.28H88.5167ZM86.5167 132.92H89.3167V128.92H86.5167V132.92ZM87.3167 130.92V132.52H91.3167V130.92H87.3167ZM97.1767 136.42C97.1767 135.47 96.9753 134.534 96.4843 133.692L93.0292 135.708C93.0981 135.826 93.1767 136.037 93.1767 136.42H97.1767ZM96.5161 133.749C96.084 132.949 95.4636 132.287 94.6524 131.834L92.7011 135.326C92.7965 135.379 92.8961 135.464 92.9973 135.651L96.5161 133.749ZM94.6746 131.847C93.9235 131.414 93.0981 131.2 92.2367 131.2V135.2C92.4153 135.2 92.5499 135.239 92.6788 135.313L94.6746 131.847ZM92.2367 131.2C91.3595 131.2 90.5311 131.436 89.7827 131.876L91.8108 135.324C91.969 135.231 92.1006 135.2 92.2367 135.2V131.2ZM89.7988 131.867C89.0144 132.318 88.4123 132.966 87.9773 133.733L91.4561 135.707C91.5811 135.487 91.6991 135.388 91.7946 135.333L89.7988 131.867ZM87.9573 133.769C87.5054 134.605 87.3167 135.524 87.3167 136.46H91.3167C91.3167 136.063 91.3947 135.822 91.4761 135.671L87.9573 133.769ZM87.3167 136.46C87.3167 137.396 87.5054 138.315 87.9573 139.151L91.4761 137.249C91.3947 137.098 91.3167 136.857 91.3167 136.46H87.3167ZM87.9773 139.187C88.4083 139.946 88.9987 140.589 89.7601 141.05L91.8333 137.63C91.7147 137.558 91.5852 137.44 91.4561 137.213L87.9773 139.187ZM89.8211 141.086C90.5648 141.502 91.3797 141.72 92.2367 141.72V137.72C92.0804 137.72 91.9353 137.685 91.7724 137.594L89.8211 141.086ZM92.2367 141.72C93.1181 141.72 93.9572 141.489 94.7133 141.03L92.6401 137.61C92.5162 137.685 92.3953 137.72 92.2367 137.72V141.72ZM94.6908 141.044C95.4793 140.58 96.088 139.923 96.5161 139.131L92.9973 137.229C92.8921 137.424 92.7808 137.527 92.6627 137.596L94.6908 141.044ZM96.4961 139.167C96.9779 138.318 97.1767 137.377 97.1767 136.42H93.1767C93.1767 136.823 93.0955 137.055 93.0173 137.193L96.4961 139.167ZM101.871 141.7L101.031 143.515L101.045 143.521L101.059 143.528L101.871 141.7ZM100.151 140.36L98.5423 141.548L98.5513 141.56L98.5605 141.572L100.151 140.36ZM99.4714 138.5V136.5H97.3503L97.4749 138.617L99.4714 138.5ZM102.291 138.5L104.276 138.252L104.057 136.5H102.291V138.5ZM102.911 139.56L101.684 141.139L101.697 141.149L101.711 141.16L102.911 139.56ZM105.531 139.66L104.389 138.018L104.372 138.03L104.355 138.043L105.531 139.66ZM105.431 138.04L104.511 139.816L104.55 139.836L104.589 139.854L105.431 138.04ZM103.691 137.44L104.207 135.508L104.184 135.502L104.162 135.496L103.691 137.44ZM101.651 136.82L100.892 138.67L100.9 138.674L100.909 138.677L101.651 136.82ZM100.291 135.84L98.7664 137.134L98.7776 137.147L98.7891 137.16L100.291 135.84ZM100.251 132.38L98.621 131.222L98.6108 131.236L98.6008 131.251L100.251 132.38ZM101.771 131.18L100.966 129.349L100.959 129.352L100.952 129.355L101.771 131.18ZM107.271 131.74L105.978 133.266L105.986 133.272L105.994 133.279L107.271 131.74ZM108.571 134.4V136.4H110.719L110.566 134.258L108.571 134.4ZM105.891 134.4L103.9 134.581L104.065 136.4H105.891V134.4ZM105.331 133.36L104.051 134.896L104.086 134.925L104.121 134.952L105.331 133.36ZM102.851 133.24L101.742 131.576L101.723 131.589L101.704 131.602L102.851 133.24ZM103.011 134.88L102.067 136.643L102.092 136.656L102.117 136.669L103.011 134.88ZM104.751 135.46L104.259 137.398L104.266 137.4L104.751 135.46ZM108.071 137.08L106.528 138.351L106.548 138.376L106.569 138.4L108.071 137.08ZM108.671 138.84H110.671V138.822L110.671 138.804L108.671 138.84ZM108.131 140.56L106.501 139.402L106.491 139.416L106.481 139.431L108.131 140.56ZM106.611 141.76L107.399 143.598L107.408 143.595L107.417 143.591L106.611 141.76ZM104.311 140.18C103.643 140.18 103.112 140.063 102.684 139.872L101.059 143.528C102.071 143.977 103.167 144.18 104.311 144.18V140.18ZM102.712 139.885C102.249 139.671 101.948 139.417 101.742 139.148L98.5605 141.572C99.2085 142.423 100.054 143.062 101.031 143.515L102.712 139.885ZM101.761 139.172C101.572 138.917 101.485 138.667 101.468 138.383L97.4749 138.617C97.5381 139.693 97.9042 140.683 98.5423 141.548L101.761 139.172ZM99.4714 140.5H102.291V136.5H99.4714V140.5ZM100.307 138.748C100.43 139.735 100.933 140.555 101.684 141.139L104.139 137.981C104.137 137.98 104.174 138.009 104.213 138.075C104.253 138.144 104.271 138.21 104.276 138.252L100.307 138.748ZM101.711 141.16C102.488 141.742 103.389 141.98 104.291 141.98V137.98C104.189 137.98 104.136 137.967 104.119 137.962C104.104 137.957 104.106 137.956 104.111 137.96L101.711 141.16ZM104.291 141.98C105.058 141.98 105.946 141.832 106.708 141.277L104.355 138.043C104.444 137.978 104.507 137.962 104.502 137.963C104.499 137.964 104.481 137.969 104.445 137.973C104.409 137.977 104.359 137.98 104.291 137.98V141.98ZM106.674 141.302C107.442 140.767 107.991 139.915 107.991 138.84H103.991C103.991 138.687 104.03 138.498 104.132 138.316C104.229 138.143 104.341 138.051 104.389 138.018L106.674 141.302ZM107.991 138.84C107.991 138.295 107.843 137.728 107.49 137.223C107.148 136.734 106.697 136.422 106.274 136.226L104.589 139.854C104.54 139.831 104.368 139.739 104.213 139.517C104.046 139.279 103.991 139.025 103.991 138.84H107.991ZM106.352 136.264C105.789 135.973 105.034 135.728 104.207 135.508L103.176 139.372C103.949 139.579 104.354 139.734 104.511 139.816L106.352 136.264ZM104.162 135.496C103.388 135.309 102.808 135.128 102.394 134.963L100.909 138.677C101.562 138.938 102.341 139.171 103.221 139.384L104.162 135.496ZM102.411 134.97C102.188 134.878 101.986 134.738 101.794 134.52L98.7891 137.16C99.3705 137.822 100.075 138.335 100.892 138.67L102.411 134.97ZM101.816 134.546C101.815 134.545 101.799 134.527 101.779 134.465C101.758 134.397 101.731 134.269 101.731 134.06H97.7314C97.7314 135.139 98.0056 136.237 98.7664 137.134L101.816 134.546ZM101.731 134.06C101.731 133.85 101.783 133.684 101.902 133.509L98.6008 131.251C98.0268 132.09 97.7314 133.043 97.7314 134.06H101.731ZM101.882 133.538C102.006 133.364 102.212 133.175 102.591 133.005L100.952 129.355C100.024 129.772 99.217 130.383 98.621 131.222L101.882 133.538ZM102.577 133.011C102.939 132.851 103.434 132.74 104.111 132.74V128.74C103.002 128.74 101.937 128.922 100.966 129.349L102.577 133.011ZM104.111 132.74C105.094 132.74 105.645 132.983 105.978 133.266L108.564 130.214C107.325 129.164 105.769 128.74 104.111 128.74V132.74ZM105.994 133.279C106.318 133.548 106.531 133.907 106.576 134.542L110.566 134.258C110.452 132.653 109.799 131.239 108.549 130.201L105.994 133.279ZM108.571 132.4H105.891V136.4H108.571V132.4ZM107.883 134.219C107.796 133.254 107.349 132.381 106.542 131.768L104.121 134.952C104.075 134.917 104.011 134.852 103.96 134.758C103.911 134.667 103.901 134.597 103.9 134.581L107.883 134.219ZM106.612 131.824C105.833 131.175 104.898 130.96 104.031 130.96V134.96C104.145 134.96 104.187 134.974 104.178 134.972C104.173 134.97 104.157 134.964 104.132 134.951C104.108 134.938 104.079 134.92 104.051 134.896L106.612 131.824ZM104.031 130.96C103.317 130.96 102.478 131.085 101.742 131.576L103.961 134.904C103.868 134.966 103.807 134.979 103.818 134.976C103.823 134.975 103.842 134.971 103.879 134.967C103.915 134.963 103.966 134.96 104.031 134.96V130.96ZM101.704 131.602C100.888 132.173 100.451 133.053 100.451 134.02H104.451C104.451 134.126 104.428 134.298 104.331 134.488C104.233 134.679 104.101 134.807 103.998 134.878L101.704 131.602ZM100.451 134.02C100.451 134.557 100.591 135.109 100.915 135.606C101.231 136.091 101.654 136.421 102.067 136.643L103.956 133.117C103.996 133.139 104.138 133.226 104.267 133.424C104.405 133.635 104.451 133.856 104.451 134.02H100.451ZM102.117 136.669C102.688 136.954 103.437 137.19 104.259 137.398L105.244 133.522C104.492 133.33 104.081 133.179 103.906 133.091L102.117 136.669ZM104.266 137.4C105.012 137.587 105.572 137.766 105.972 137.93L107.491 134.23C106.851 133.967 106.091 133.733 105.236 133.52L104.266 137.4ZM105.972 137.93C106.173 138.013 106.354 138.141 106.528 138.351L109.615 135.809C109.042 135.112 108.33 134.574 107.491 134.23L105.972 137.93ZM106.569 138.4C106.571 138.402 106.665 138.493 106.672 138.876L110.671 138.804C110.651 137.72 110.345 136.638 109.574 135.76L106.569 138.4ZM106.671 138.84C106.671 139.078 106.613 139.244 106.501 139.402L109.762 141.718C110.37 140.863 110.671 139.882 110.671 138.84H106.671ZM106.481 139.431C106.381 139.576 106.195 139.758 105.806 139.929L107.417 143.591C108.361 143.175 109.188 142.557 109.782 141.689L106.481 139.431ZM105.824 139.922C105.471 140.073 104.983 140.18 104.311 140.18V144.18C105.4 144.18 106.445 144.007 107.399 143.598L105.824 139.922Z" fill="#090606" fill-opacity="0.87" mask="url(#path-3-outside-1_51_692)"/>
</g>
<defs>
<filter id="filter0_d_51_692" x="22.3799" y="128.02" width="90.292" height="27.2598" filterUnits="userSpaceOnUse" color-interpolation-filters="sRGB">
<feFlood flood-opacity="0" result="BackgroundImageFix"/>
<feColorMatrix in="SourceAlpha" type="matrix" values="0 0 0 0 0 0 0 0 0 0 0 0 0 0 0 0 0 0 127 0" result="hardAlpha"/>
<feOffset dy="4"/>
<feGaussianBlur stdDeviation="2"/>
<feComposite in2="hardAlpha" operator="out"/>
<feColorMatrix type="matrix" values="0 0 0 0 0 0 0 0 0 0 0 0 0 0 0 0 0 0 0.25 0"/>
<feBlend mode="normal" in2="BackgroundImageFix" result="effect1_dropShadow_51_692"/>
<feBlend mode="normal" in="SourceGraphic" in2="effect1_dropShadow_51_692" result="shape"/>
</filter>
</defs>
</svg>
