<svg width="246" height="246" viewBox="0 0 246 246" fill="none" xmlns="http://www.w3.org/2000/svg">
<circle cx="123" cy="123" r="123" fill="black" fill-opacity="0.79"/>
<path d="M87.7093 22.1346C99.1032 20.6139 111.173 32.153 114.649 48.0752C118.125 63.908 111.849 78.0412 100.455 79.6513C89.1577 81.2614 76.9914 69.7223 73.4188 53.8001C69.8461 37.9673 76.3155 23.8341 87.7093 22.1346ZM156.748 22.1346C168.239 23.8341 174.611 37.9673 171.232 53.8001C167.563 69.7223 155.493 81.2614 144.099 79.6513C132.609 78.0412 126.332 63.908 129.905 48.0752C133.381 32.153 145.451 20.6139 156.748 22.1346ZM36.0509 63.2818C47.0585 58.8988 62.025 66.8599 69.8461 80.7247C77.1845 94.8579 74.674 109.707 63.763 114.09C52.852 118.473 37.9821 110.601 30.354 96.5575C22.7259 82.5137 25.4296 67.5755 36.0509 63.2818ZM209.855 63.2818C220.476 67.5755 223.18 82.5137 215.552 96.5575C207.924 110.601 193.054 118.473 182.143 114.09C171.232 109.707 168.721 94.8579 176.06 80.7247C183.881 66.8599 198.847 58.8988 209.855 63.2818ZM193.73 159.71C194.116 168.118 187.164 177.421 178.86 180.909C161.576 188.244 141.106 173.038 121.891 173.038C102.676 173.038 82.0124 188.87 65.0183 180.909C55.3625 176.526 48.7 164.898 49.9552 155.237C51.6933 141.909 68.9771 134.753 79.2123 125.003C92.8269 112.39 102.483 88.6858 121.891 88.6858C141.202 88.6858 151.437 112.032 164.473 125.003C175.191 135.916 193.054 145.129 193.73 159.71Z" fill="white" fill-opacity="0.9"/>
<path d="M65.1248 199.848V206.904C65.1248 207.896 65.3648 208.632 65.8448 209.112C66.3354 209.592 67.0128 209.832 67.8768 209.832C68.7301 209.832 69.3968 209.592 69.8768 209.112C70.3674 208.632 70.6128 207.896 70.6128 206.904V199.848H72.0688V206.888C72.0688 207.816 71.8821 208.6 71.5087 209.24C71.1354 209.869 70.6288 210.339 69.9888 210.648C69.3594 210.957 68.6501 211.112 67.8608 211.112C67.0714 211.112 66.3568 210.957 65.7168 210.648C65.0874 210.339 64.5861 209.869 64.2128 209.24C63.8501 208.6 63.6688 207.816 63.6688 206.888V199.848H65.1248ZM81.9536 203.112C81.9536 204.04 81.6336 204.813 80.9936 205.432C80.3643 206.04 79.399 206.344 78.0976 206.344H75.9536V211H74.4976V199.848H78.0976C79.3563 199.848 80.311 200.152 80.9616 200.76C81.623 201.368 81.9536 202.152 81.9536 203.112ZM78.0976 205.144C78.9083 205.144 79.5056 204.968 79.8896 204.616C80.2736 204.264 80.4656 203.763 80.4656 203.112C80.4656 201.736 79.6763 201.048 78.0976 201.048H75.9536V205.144H78.0976ZM85.2193 209.816H89.1233V211H83.7633V199.848H85.2193V209.816ZM95.7255 211.112C94.6908 211.112 93.7468 210.872 92.8935 210.392C92.0402 209.901 91.3628 209.224 90.8615 208.36C90.3708 207.485 90.1255 206.504 90.1255 205.416C90.1255 204.328 90.3708 203.352 90.8615 202.488C91.3628 201.613 92.0402 200.936 92.8935 200.456C93.7468 199.965 94.6908 199.72 95.7255 199.72C96.7708 199.72 97.7202 199.965 98.5735 200.456C99.4268 200.936 100.099 201.608 100.59 202.472C101.08 203.336 101.326 204.317 101.326 205.416C101.326 206.515 101.08 207.496 100.59 208.36C100.099 209.224 99.4268 209.901 98.5735 210.392C97.7202 210.872 96.7708 211.112 95.7255 211.112ZM95.7255 209.848C96.5042 209.848 97.2028 209.667 97.8215 209.304C98.4508 208.941 98.9415 208.424 99.2935 207.752C99.6562 207.08 99.8375 206.301 99.8375 205.416C99.8375 204.52 99.6562 203.741 99.2935 203.08C98.9415 202.408 98.4562 201.891 97.8375 201.528C97.2188 201.165 96.5148 200.984 95.7255 200.984C94.9362 200.984 94.2322 201.165 93.6135 201.528C92.9948 201.891 92.5042 202.408 92.1415 203.08C91.7895 203.741 91.6135 204.52 91.6135 205.416C91.6135 206.301 91.7895 207.08 92.1415 207.752C92.5042 208.424 92.9948 208.941 93.6135 209.304C94.2428 209.667 94.9468 209.848 95.7255 209.848ZM109.84 208.52H104.976L104.08 211H102.544L106.576 199.912H108.256L112.272 211H110.736L109.84 208.52ZM109.424 207.336L107.408 201.704L105.392 207.336H109.424ZM117.501 199.848C118.717 199.848 119.768 200.077 120.653 200.536C121.549 200.984 122.232 201.629 122.701 202.472C123.181 203.315 123.421 204.307 123.421 205.448C123.421 206.589 123.181 207.581 122.701 208.424C122.232 209.256 121.549 209.896 120.653 210.344C119.768 210.781 118.717 211 117.501 211H114.029V199.848H117.501ZM117.501 209.8C118.941 209.8 120.04 209.421 120.797 208.664C121.554 207.896 121.933 206.824 121.933 205.448C121.933 204.061 121.549 202.979 120.781 202.2C120.024 201.421 118.93 201.032 117.501 201.032H115.485V209.8H117.501ZM137.063 203.112C137.063 204.04 136.743 204.813 136.103 205.432C135.474 206.04 134.508 206.344 133.207 206.344H131.063V211H129.607V199.848H133.207C134.466 199.848 135.42 200.152 136.071 200.76C136.732 201.368 137.063 202.152 137.063 203.112ZM133.207 205.144C134.018 205.144 134.615 204.968 134.999 204.616C135.383 204.264 135.575 203.763 135.575 203.112C135.575 201.736 134.786 201.048 133.207 201.048H131.063V205.144H133.207ZM147.465 199.848V211H146.009V205.944H140.329V211H138.873V199.848H140.329V204.744H146.009V199.848H147.465ZM155.007 211.112C153.972 211.112 153.028 210.872 152.175 210.392C151.321 209.901 150.644 209.224 150.143 208.36C149.652 207.485 149.407 206.504 149.407 205.416C149.407 204.328 149.652 203.352 150.143 202.488C150.644 201.613 151.321 200.936 152.175 200.456C153.028 199.965 153.972 199.72 155.007 199.72C156.052 199.72 157.001 199.965 157.855 200.456C158.708 200.936 159.38 201.608 159.871 202.472C160.361 203.336 160.607 204.317 160.607 205.416C160.607 206.515 160.361 207.496 159.871 208.36C159.38 209.224 158.708 209.901 157.855 210.392C157.001 210.872 156.052 211.112 155.007 211.112ZM155.007 209.848C155.785 209.848 156.484 209.667 157.103 209.304C157.732 208.941 158.223 208.424 158.575 207.752C158.937 207.08 159.119 206.301 159.119 205.416C159.119 204.52 158.937 203.741 158.575 203.08C158.223 202.408 157.737 201.891 157.119 201.528C156.5 201.165 155.796 200.984 155.007 200.984C154.217 200.984 153.513 201.165 152.895 201.528C152.276 201.891 151.785 202.408 151.423 203.08C151.071 203.741 150.895 204.52 150.895 205.416C150.895 206.301 151.071 207.08 151.423 207.752C151.785 208.424 152.276 208.941 152.895 209.304C153.524 209.667 154.228 209.848 155.007 209.848ZM169.393 199.848V201.032H166.353V211H164.897V201.032H161.841V199.848H169.393ZM176.241 211.112C175.206 211.112 174.262 210.872 173.409 210.392C172.556 209.901 171.878 209.224 171.377 208.36C170.886 207.485 170.641 206.504 170.641 205.416C170.641 204.328 170.886 203.352 171.377 202.488C171.878 201.613 172.556 200.936 173.409 200.456C174.262 199.965 175.206 199.72 176.241 199.72C177.286 199.72 178.236 199.965 179.089 200.456C179.942 200.936 180.614 201.608 181.105 202.472C181.596 203.336 181.841 204.317 181.841 205.416C181.841 206.515 181.596 207.496 181.105 208.36C180.614 209.224 179.942 209.901 179.089 210.392C178.236 210.872 177.286 211.112 176.241 211.112ZM176.241 209.848C177.02 209.848 177.718 209.667 178.337 209.304C178.966 208.941 179.457 208.424 179.809 207.752C180.172 207.08 180.353 206.301 180.353 205.416C180.353 204.52 180.172 203.741 179.809 203.08C179.457 202.408 178.972 201.891 178.353 201.528C177.734 201.165 177.03 200.984 176.241 200.984C175.452 200.984 174.748 201.165 174.129 201.528C173.51 201.891 173.02 202.408 172.657 203.08C172.305 203.741 172.129 204.52 172.129 205.416C172.129 206.301 172.305 207.08 172.657 207.752C173.02 208.424 173.51 208.941 174.129 209.304C174.758 209.667 175.462 209.848 176.241 209.848Z" fill="white"/>
</svg>
